<svg xmlns="http://www.w3.org/2000/svg" xmlns:xlink="http://www.w3.org/1999/xlink" xmlns:lucid="lucid" width="1384.01" height="1142.42"><g transform="translate(-250.84773778853906 -67.50481341220117)" lucid:page-tab-id="SlBE_nrZX8wB"><path d="M270.85 138.9a6 6 0 0 1 6-6h1332a6 6 0 0 1 6 6v1045.03a6 6 0 0 1-6 6h-1332a6 6 0 0 1-6-6z" fill-opacity="0"/><path d="M296.1 132.98h20.2m10.1 0h20.2m10.1 0h20.2m10.1 0h20.18m10.1 0h20.2m10.1 0h20.2m10.1 0h20.2m10.1 0h20.18m10.1 0h20.2m10.1 0h20.2m10.1 0l20.18-.02m10.1 0h20.2m10.1 0h20.2m10.1 0h20.2m10.1 0h20.18m10.1 0h20.2m10.1 0H801m10.1 0h20.18m10.1 0h20.2m10.1 0h20.2m10.1 0h20.2m10.1 0h20.18m10.1-.02h20.2m10.1 0h20.2m10.1 0h20.18m10.1 0h20.2m10.1 0h20.2m10.1 0h20.2m10.1 0h20.18m10.1 0h20.2m10.1 0h20.2m10.1 0h20.18m10.1 0h20.2m10.1 0h20.2m10.1-.02h20.2m10.1 0h20.18m10.1 0h20.2m10.1 0h20.2m10.1 0h20.18m10.1 0h20.2m10.1 0h20.2m10.1 0h20.2m10.1 0h20.18m10.1 0h10.1l.94.06.9.22.88.36.8.5.72.6.6.72.5.8.36.87.22.92v9.96m0 9.96v19.92m0 9.96v19.92m0 9.96v19.93m0 9.95v19.92m0 9.96l.02 19.92m0 9.97v19.92m0 9.96v19.92m0 9.96V387m0 9.97v19.92m0 9.95v19.93m0 9.96v19.92m0 9.96v19.93m0 9.96v19.93m0 9.96v19.9m0 9.98l.02 19.92m0 9.96v19.92m0 9.96v19.93m0 9.96v19.92m0 9.96v19.94m0 9.96v19.92m0 9.96v19.93m0 9.97v19.92m0 9.95v19.92m0 9.97l.02 19.92m0 9.96v19.92m0 9.96v19.93m0 9.96v19.9m0 9.97v19.93m0 9.96v19.92m0 9.96v19.92m0 9.97v19.92m0 9.96v19.93m0 9.97v19.92m.02 9.96V1164m0 9.96v9.97l-.08.93-.22.92-.36.87-.5.8-.6.72-.72.6-.8.5-.87.36-.9.22h-10.1m-10.1 0h-20.2m-10.1 0h-20.2m-10.1 0h-20.18m-10.1 0h-20.2m-10.1 0h-20.2m-10.1 0h-20.2m-10.1 0h-20.18m-10.1 0l-20.2.02m-10.1 0h-20.2m-10.1 0h-20.18m-10.1 0h-20.2m-10.1 0h-20.2m-10.1 0h-20.2m-10.1 0h-20.18m-10.1 0h-20.2m-10.1 0H1115m-10.1 0h-20.18m-10.1 0h-20.2m-10.1 0h-20.2m-10.1 0l-20.2.02m-10.1 0h-20.18m-10.1 0h-20.2m-10.1 0h-20.2m-10.1 0h-20.18m-10.1 0h-20.2m-10.1 0h-20.2m-10.1 0h-20.2m-10.1 0h-20.18m-10.1 0h-20.2m-10.1 0h-20.2m-10.1 0H660.6m-10.1 0h-20.2m-10.1 0h-20.2m-10.1 0h-20.2m-10.1 0H539.4m-10.1 0h-20.2m-10.1 0h-20.2m-10.1 0l-20.18.02m-10.1 0h-20.2m-10.1 0h-20.2m-10.1 0h-20.2m-10.1 0h-20.18m-10.1 0h-20.2m-10.1 0h-10.1l-.93-.07-.9-.22-.88-.36-.8-.5-.7-.6-.63-.72-.5-.8-.36-.87-.22-.92v-9.96m0-9.96v-19.92m0-9.96v-19.93m0-9.96v-19.92m0-9.96v-19.94m0-9.96v-19.92m0-9.96V995.6m0-9.97V965.7m0-9.95l-.02-19.92m0-9.96v-19.93m0-9.96v-19.92m0-9.96v-19.93m0-9.96v-19.9m0-9.97V786.4m0-9.96v-19.92m0-9.96v-19.92m0-9.97v-19.92m0-9.96v-19.93m-.02-9.96V637m0-9.96V607.1m0-9.96V577.2m0-9.95v-19.92m0-9.96v-19.92m0-9.97v-19.92m0-9.96v-19.92m0-9.97v-19.9m0-9.97V397.9m0-9.95l-.02-19.93m0-9.96v-19.92m0-9.96v-19.93m0-9.96v-19.93m0-9.96v-19.9m0-9.98V218.6m0-9.96v-19.92m0-9.97v-19.92m0-9.96v-9.96l.06-.93.22-.92.36-.86.5-.82.6-.7.72-.63.8-.5.87-.35.9-.22H286" stroke="#1071e5" stroke-width="2" fill="none"/><path d="M503.75 506.44a6 6 0 0 1 6-6h860.07a6 6 0 0 1 6 6v392.94a6 6 0 0 1-6 6H509.75a6 6 0 0 1-6-6z" fill="#dfe3e8"/><path d="M519.38 500.5h9.06m6.05 0h9.05m6.04 0h9.05m6.05 0h9.06m6.04 0h9.07m6.04 0h9.07m6.04 0h9.08m6.04 0h9.06m6.04 0h9.07m6.03 0h9.06m6.04 0h9.06m6.04 0h9.06m6.05 0h9.06m6.05 0h9.06m6.06 0h9.06m6.04 0h9.07m6.04 0h9.06m6.04 0h9.07m6.04 0h9.06m6.04 0h9.07m6.04 0h9.05m6.05 0h9.06m6.04 0l9.06-.02m6.05 0h9.07m6.04 0H891m6.04 0h9.06m6.04 0h9.07m6.03 0h9.06m6.03 0h9.07m6.04 0h9.06m6.04 0h9.07m6.05 0h9.06m6.06 0h9.06m6.04 0h9.06m6.05 0h9.06m6.04 0h9.07m6.04 0h9.06m6.04 0h9.07m6.04-.02h9.05m6.04 0h9.06m6.04 0h9.06m6.05 0h9.07m6.04 0h9.07m6.05 0h9.06m6.04 0h9.07m6.03 0h9.06m6.03 0h9.07m6.04 0h9.06m6.04 0h9.07m6.05 0h9.06m6.05 0h9.07m6.04 0h9.06m6.05 0h9.06m6.04 0l9.06-.02m6.05 0h9.06m6.04 0h9.07m6.04 0h4.52l.94.07.9.23.88.36.8.5.72.6.6.7.5.82.37.87.22.9v4.55m0 6.06v9.1m0 6.06v9.08m0 6.06v9.1m0 6.05v9.1m0 6.05v9.1m0 6.05v9.1m0 6.05l.02 9.1m0 6.05v9.1m0 6.05v9.1m0 6.05v9.1m0 6.05v9.1m0 6.05v9.1m0 6.05v9.08m0 6.06l.02 9.1m0 6.05v9.08m0 6.06v9.1m0 6.05v9.08m0 6.06v9.1m0 6.05v9.08m0 6.06v9.1m0 6.05v9.08m0 6.06v9.1m0 6.05v9.07m0 6.06v9.1m.02 6.05v9.1m0 6.05v4.55l-.07.94-.22.9-.36.88-.5.8-.6.72-.72.6-.8.5-.88.36-.9.22h-4.54m-6.05 0h-9.06m-6.04 0h-9.06m-6.05 0h-9.06m-6.03 0h-9.07m-6.04 0h-9.06m-6.04 0h-9.07m-6.05 0h-9.06m-6.05 0h-9.07m-6.04 0l-9.06.02m-6.05 0h-9.06m-6.04 0h-9.06m-6.05 0h-9.06m-6.04 0h-9.07m-6.04 0h-9.05m-6.04 0h-9.06m-6.04 0h-9.06m-6.04 0h-9.07m-6.04 0h-9.07m-6.04 0h-9.08m-6.04 0h-9.06m-6.05 0H1049m-6.03 0h-9.06m-6.04 0h-9.06m-6.04 0h-9.07m-6.05.02h-9.06m-6.05 0h-9.07m-6.04 0h-9.06m-6.04 0h-9.07m-6.04 0h-9.06m-6.05 0h-9.06m-6.04 0h-9.06m-6.05 0h-9.05m-6.04 0h-9.05m-6.05 0h-9.06m-6.04 0h-9.07m-6.04 0h-9.07m-6.04 0h-9.08m-6.04 0h-9.06m-6.04 0h-9.07m-6.03 0l-9.06.02m-6.04 0h-9.06m-6.04 0h-9.06m-6.05 0h-9.06m-6.05 0h-9.07m-6.04 0h-9.06m-6.04 0h-9.07m-6.04 0h-9.06m-6.04 0h-9.07m-6.04 0h-9.06m-6.04 0h-9.07m-6.04 0h-9.05m-6.05 0h-9.06m-6.04 0h-9.06m-6.05 0h-9.07m-6.04 0l-9.08.02m-6.04 0h-9.06m-6.04 0h-4.53l-.94-.08-.9-.22-.88-.36-.8-.5-.72-.6-.6-.72-.5-.8-.36-.87-.22-.9v-4.56m0-6.06v-9.08m0-6.06v-9.1m0-6.05v-9.08m0-6.06v-9.08m0-6.06l-.02-9.1m0-6.05v-9.1m0-6.05v-9.1m0-6.05v-9.1m0-6.05v-9.1m0-6.05v-9.1m0-6.05v-9.1m0-6.05l-.02-9.1m0-6.05v-9.1m0-6.05v-9.1m0-6.05v-9.08m0-6.06v-9.1m0-6.05v-9.1m0-6.05v-9.1m0-6.05l-.02-9.1m0-6.05v-9.1m0-6.05v-9.1m0-6.05v-9.1m0-6.05v-9.1m0-6.05v-9.1m0-6.05v-9.08m0-6.06v-4.56l.06-.94.22-.9.36-.88.5-.8.6-.72.72-.6.8-.5.87-.37.9-.22h4.54" stroke="#3a414a" stroke-width="3" fill="none"/><path d="M828.87 933.25h136.45v76.8H828.87z" fill="none"/><use xlink:href="#a" transform="matrix(1,0,0,1,828.8711220449322,933.2532053474772) translate(1.882716049382708 31.388888888888886)"/><use xlink:href="#b" transform="matrix(1,0,0,1,828.8711220449322,933.2532053474772) translate(6.82098765432098 31.388888888888886)"/><use xlink:href="#c" transform="matrix(1,0,0,1,828.8711220449322,933.2532053474772) translate(46.32716049382716 31.388888888888886)"/><use xlink:href="#d" transform="matrix(1,0,0,1,828.8711220449322,933.2532053474772) translate(5.882716049382708 52.72222222222222)"/><use xlink:href="#e" transform="matrix(1,0,0,1,828.8711220449322,933.2532053474772) translate(22.672839506172835 52.72222222222222)"/><use xlink:href="#f" transform="matrix(1,0,0,1,828.8711220449322,933.2532053474772) translate(69.9320987654321 52.72222222222222)"/><path d="M619.5 723.7c0 16.14-21.72 29.1-26.48 31.74-.55.3-1.2.3-1.75 0-4.76-2.64-26.48-15.6-26.48-31.74v-19.44c0-.84.75-1.5 1.68-1.5 16.9-.42 12.97-7.08 25.66-7.08 12.7 0 8.76 6.66 25.66 7.08.93 0 1.7.66 1.7 1.5z" stroke="#000" stroke-opacity="0" fill="#0078d4"/><path d="M617.26 723.82c0 14.82-19.97 26.7-24.3 29.16-.54.3-1.1.3-1.64 0-4.32-2.4-24.3-14.34-24.3-29.16v-17.76c0-.78.72-1.38 1.54-1.44 15.54-.36 11.93-6.42 23.58-6.42 11.66 0 8.05 6.06 23.6 6.42.8.06 1.52.66 1.52 1.44z" stroke="#000" stroke-opacity="0" fill="#6bb9f2"/><path d="M592.14 725.68V698.2c11.66 0 8.05 6.06 23.6 6.42.8.06 1.52.72 1.52 1.44v19.62zm0 0h-25c1.53 13.92 20.02 25.02 24.18 27.3.22.12.44.18.66.18h.16z" stroke="#000" stroke-opacity="0" fill="url(#g)"/><path d="M568.56 704.62c15.54-.36 11.93-6.42 23.58-6.42v27.48h-25v-19.62c0-.72.6-1.32 1.42-1.44zM617.15 725.68h-25v27.48c.27 0 .43-.06.65-.18 4.32-2.28 22.82-13.38 24.35-27.3z" stroke="#000" stroke-opacity="0" fill="#50e6ff"/><path d="M884.2 1120h186.66v60H884.2z" fill="none"/><use xlink:href="#h" transform="matrix(1,0,0,1,884.2084227781494,1120) translate(27.84567901234567 33.55555555555556)"/><use xlink:href="#i" transform="matrix(1,0,0,1,884.2084227781494,1120) translate(94.95679012345678 33.55555555555556)"/><path d="M529.64 768.68h125v80h-125z" fill="none"/><use xlink:href="#j" transform="matrix(1,0,0,1,529.6422369628946,768.6762223427605) translate(30.481481481481474 33.388888888888886)"/><use xlink:href="#k" transform="matrix(1,0,0,1,529.6422369628946,768.6762223427605) translate(3.8148148148148096 54.72222222222222)"/><use xlink:href="#l" transform="matrix(1,0,0,1,529.6422369628946,768.6762223427605) translate(72.85185185185185 54.72222222222222)"/><path d="M1216.15 947.04h128.1v49.22h-128.1z" fill="none"/><use xlink:href="#m" transform="matrix(1,0,0,1,1216.1546789865702,947.0402154019272) translate(40.87037037037037 17.888888888888886)"/><use xlink:href="#n" transform="matrix(1,0,0,1,1216.1546789865702,947.0402154019272) translate(33.438271604938265 39.22222222222222)"/><path d="M319.84 94.5h160v60h-160z" fill="none"/><use xlink:href="#o" transform="matrix(1,0,0,1,319.8442721317542,94.5021179013685) translate(5.53086419753086 33.55555555555556)"/><use xlink:href="#p" transform="matrix(1,0,0,1,319.8442721317542,94.5021179013685) translate(56.839506172839506 33.55555555555556)"/><path d="M331.86 778.17h80v50h-80z" fill="none"/><use xlink:href="#q" transform="matrix(1,0,0,1,331.858933730988,778.173022027371) translate(4.9876543209876445 17.888888888888886)"/><use xlink:href="#r" transform="matrix(1,0,0,1,331.858933730988,778.173022027371) translate(58.22222222222222 17.888888888888886)"/><use xlink:href="#s" transform="matrix(1,0,0,1,331.858933730988,778.173022027371) translate(1.0864197530864104 39.22222222222222)"/><path d="M1383 626h100v85h-100z" fill="none"/><use xlink:href="#t" transform="matrix(1,0,0,1,1383.0065462405937,626.008279068986) translate(31.753086419753085 24.72222222222222)"/><use xlink:href="#u" transform="matrix(1,0,0,1,1383.0065462405937,626.008279068986) translate(12.987654320987652 46.05555555555556)"/><use xlink:href="#v" transform="matrix(1,0,0,1,1383.0065462405937,626.008279068986) translate(21.382716049382715 67.3888888888889)"/><path d="M998.95 302.8H1140v60H998.94z" fill="none"/><use xlink:href="#a" transform="matrix(1,0,0,1,998.9480434542404,302.78508468956954) translate(31.19753086419753 22.888888888888886)"/><use xlink:href="#w" transform="matrix(1,0,0,1,998.9480434542404,302.78508468956954) translate(36.135802469135804 22.888888888888886)"/><use xlink:href="#x" transform="matrix(1,0,0,1,998.9480434542404,302.78508468956954) translate(71.69135802469137 22.888888888888886)"/><use xlink:href="#y" transform="matrix(1,0,0,1,998.9480434542404,302.78508468956954) translate(11.320987654320987 44.22222222222222)"/><use xlink:href="#z" transform="matrix(1,0,0,1,998.9480434542404,302.78508468956954) translate(71.5679012345679 44.22222222222222)"/><path d="M805.88 432.74h156.1v54h-156.1z" fill="none"/><use xlink:href="#A" transform="matrix(1,0,0,1,805.8799787233825,432.73991965252367) translate(56.7962962962963 20.388888888888886)"/><use xlink:href="#B" transform="matrix(1,0,0,1,805.8799787233825,432.73991965252367) translate(4.524691358024697 41.72222222222222)"/><use xlink:href="#d" transform="matrix(1,0,0,1,805.8799787233825,432.73991965252367) translate(91.29012345679011 41.72222222222222)"/><use xlink:href="#C" transform="matrix(1,0,0,1,805.8799787233825,432.73991965252367) translate(108.08024691358024 41.72222222222222)"/><use xlink:href="#D" transform="matrix(1,0,0,1,805.8799787233825,432.73991965252367) translate(146.5987654320988 41.72222222222222)"/><path d="M923.32 158h104.2v60h-104.2z" fill="none"/><use xlink:href="#o" transform="matrix(1,0,0,1,923.3246604875665,158.00077014595217) translate(11.537037037037031 22.888888888888886)"/><use xlink:href="#E" transform="matrix(1,0,0,1,923.3246604875665,158.00077014595217) translate(62.84567901234568 22.888888888888886)"/><use xlink:href="#F" transform="matrix(1,0,0,1,923.3246604875665,158.00077014595217) translate(32.94444444444444 44.22222222222222)"/><path d="M990.1 757.18h174.04v60H990.1z" fill="none"/><use xlink:href="#G" transform="matrix(1,0,0,1,990.110066445435,757.176471815426) translate(6.586419753086403 33.55555555555556)"/><use xlink:href="#H" transform="matrix(1,0,0,1,990.110066445435,757.176471815426) translate(57.84567901234567 33.55555555555556)"/><use xlink:href="#I" transform="matrix(1,0,0,1,990.110066445435,757.176471815426) translate(141.7962962962963 33.55555555555556)"/><path d="M638.14 530.9h150.88v65H638.14z" fill="none"/><use xlink:href="#J" transform="matrix(1,0,0,1,638.1381931830521,530.910587304531) translate(9.401234567901213 25.388888888888886)"/><use xlink:href="#K" transform="matrix(1,0,0,1,638.1381931830521,530.910587304531) translate(73.5 25.388888888888886)"/><use xlink:href="#L" transform="matrix(1,0,0,1,638.1381931830521,530.910587304531) translate(-3.6851851851851904 46.72222222222222)"/><path d="M1292.3 904.36c0 1.85-1.3 3.33-2.86 3.33-1.6 0-2.88-1.5-2.88-3.34 0-1.8 1.28-3.3 2.88-3.3 1.56 0 2.85 1.5 2.85 3.3z" stroke="#000" stroke-opacity="0" fill="url(#M)"/><path d="M1283.18 904.4c0 1.8-1.3 3.32-2.9 3.32-1.54 0-2.83-1.5-2.83-3.33 0-1.82 1.3-3.3 2.84-3.3 1.6 0 2.88 1.48 2.88 3.3z" stroke="#000" stroke-opacity="0" fill="url(#N)"/><path d="M1274.03 904.4c0 1.8-1.3 3.32-2.85 3.32-1.6 0-2.9-1.5-2.9-3.33 0-1.82 1.3-3.3 2.9-3.3 1.56 0 2.85 1.48 2.85 3.3z" stroke="#000" stroke-opacity="0" fill="url(#O)"/><path d="M1273.27 917.63l-1.64 1.9c-.32.35-.76.35-1.07 0l-12.13-14c-.58-.64-.58-1.72 0-2.4l1.64-1.9 13.2 15.2c.27.34.27.86 0 1.2z" stroke="#000" stroke-opacity="0" stroke-width=".71" fill="#50e6ff"/><path d="M1271.36 889.28l1.64 1.9c.3.35.3.87 0 1.2l-12.93 15.03-1.64-1.87c-.58-.67-.58-1.75 0-2.43l11.9-13.82c.27-.3.76-.3 1.03 0z" stroke="#000" stroke-opacity="0" stroke-width=".71" fill="#1490df"/><path d="M1300.33 901.2l1.65 1.9c.57.68.57 1.76 0 2.43l-12.14 13.98c-.3.35-.75.35-1.06 0l-1.6-1.9c-.3-.34-.3-.86 0-1.2l13.15-15.2z" stroke="#000" stroke-opacity="0" stroke-width=".71" fill="#50e6ff"/><path d="M1301.98 905.5l-1.65 1.9-12.97-15c-.27-.35-.27-.9.04-1.24l1.64-1.9c.27-.35.76-.35 1.03 0l11.9 13.8c.58.66.58 1.76 0 2.4z" stroke="#000" stroke-opacity="0" stroke-width=".71" fill="#1490df"/><path d="M930.83 677.36h93.4c2.2 0 3.3 1.1 3.3 3.3V740c0 2.2-1.1 3.3-3.3 3.3h-93.4c-2.2 0-3.3-1.1-3.3-3.3v-59.35c0-2.2 1.1-3.3 3.3-3.3z" stroke="#000" stroke-opacity="0" fill="url(#P)"/><path d="M994.23 700.74v19.08l-16.7 9.68v-19.17l16.7-9.6z" stroke="#000" stroke-opacity="0" fill="#50e6ff"/><path d="M994.23 700.74l-16.7 9.6-16.7-9.6 16.7-9.68 16.7 9.68z" stroke="#000" stroke-opacity="0" fill="#c3f1ff"/><path d="M977.53 710.33v19.17l-16.7-9.68v-19.08l16.7 9.6z" stroke="#000" stroke-opacity="0" fill="#9cebff"/><path d="M960.83 719.82l16.7-9.5v19.18l-16.7-9.68z" stroke="#000" stroke-opacity="0" fill="#c3f1ff"/><path d="M994.23 719.82l-16.7-9.5v19.18l16.7-9.68z" stroke="#000" stroke-opacity="0" fill="#9cebff"/><path d="M997.63 763.2c-9.9-1.55-10.3-8.6-10.3-19.9h-19.6c0 11.3-.4 18.35-10.3 19.9-2.8.27-4.9 2.65-4.9 5.48h50c0-2.83-2.1-5.2-4.9-5.48z" stroke="#000" stroke-opacity="0" fill="url(#Q)"/><path d="M977.53 769.18v291.2" stroke="#3a414a" fill="none"/><path d="M978.03 769.2h-1v-.52h1zM978.03 1060.9h-1v-.52h1z" stroke="#3a414a" stroke-width=".05" fill="#3a414a"/><path d="M977.53 379.96V303.3" stroke="#3a414a" fill="none"/><path d="M978.03 380.46h-1v-.5h1zM978.03 303.3h-1v-.52h.5l.5-.02z" stroke="#3a414a" stroke-width=".05" fill="#3a414a"/><path d="M977.53 218c-23.44 0-42.46 19-42.46 42.4s19.02 42.4 42.46 42.4c23.45 0 42.47-19 42.47-42.4s-19.02-42.4-42.47-42.4zm0 79.02c-20.2 0-36.7-16.45-36.7-36.63 0-20.2 16.5-36.63 36.7-36.63 20.22 0 36.7 16.44 36.7 36.62 0 20.17-16.48 36.62-36.7 36.62z" stroke="#000" stroke-opacity="0" fill="url(#R)"/><path d="M1014.22 260.4c0 20.17-16.47 36.62-36.7 36.62-20.2 0-36.68-16.45-36.68-36.63 0-20.2 16.48-36.63 36.7-36.63 20.2 0 36.68 16.44 36.68 36.62z" stroke="#000" stroke-opacity="0" fill="#fff"/><path d="M999.7 252.08c3.57-3.56 3.57-9.32 0-12.97L984 223.44c-3.58-3.56-9.35-3.56-12.92 0l-15.7 15.68c-3.58 3.66-3.58 9.42 0 12.98l13.07 13.32c.5.5.76 1.1.76 1.78v24.33c0 .86.26 1.62.86 2.2l6.03 6.03c.75.77 2.1.77 2.88 0l5.77-5.85 3.4-3.4c.5-.4.5-1.18 0-1.68l-2.46-2.46c-.44-.5-.44-1.27 0-1.78l2.45-2.46c.5-.5.5-1.2 0-1.7l-2.46-2.46c-.44-.5-.44-1.35 0-1.86l2.45-2.46c.5-.42.5-1.2 0-1.7l-3.4-3.4v-1.26zm-22.17-24.84c2.9 0 5.18 2.3 5.18 5.17 0 2.8-2.28 5.2-5.17 5.2-2.88 0-5.18-2.4-5.18-5.2 0-2.87 2.3-5.16 5.18-5.16z" stroke="#000" stroke-opacity="0" fill="url(#S)"/><path d="M973.46 291.85c.17.17.42.25.68.25.68 0 1.18-.5 1.18-1.1v-20c0-.43-.17-.77-.5-.94-.26-.17-.43-.26-.68-.26-.68.1-1.1.6-1.02 1.2v20c0 .25.08.6.34.85zM966.32 244.37h23.02c.93 0 1.44.5 1.44 1.44v.26c0 .94-.5 1.36-1.44 1.36h-23.02c-.93 0-1.36-.42-1.36-1.36v-.25c0-.92.43-1.43 1.36-1.43zM966.32 249.3h23.02c.93 0 1.44.5 1.44 1.43v.25c0 .93-.5 1.36-1.44 1.36h-23.02c-.93 0-1.36-.43-1.36-1.36v-.25c0-.94.43-1.44 1.36-1.44z" stroke="#000" stroke-opacity="0" fill="#ff9300" fill-opacity=".75"/><path d="M1480.97 587.4l31.2 19.3 31.8-19.3 3.96 4.36-35.75 22.04-35.18-21.97 3.97-4.42z" stroke="#000" stroke-opacity="0" fill="#50e6ff"/><path d="M1483.3 585l28.88-32.82 29.44 32.82-29.44 17.75L1483.3 585z" stroke="#000" stroke-opacity="0" fill="#fff"/><path d="M1512.18 552.18v50.57L1483.3 585l28.88-32.82z" stroke="#000" stroke-opacity="0" fill="#50e6ff"/><path d="M1512.18 552.18v50.57l29.44-17.75-29.44-32.82z" stroke="#000" stroke-opacity="0" fill="url(#T)"/><path d="M1512.18 578.3l29.44 6.7-29.44 17.75V578.3z" stroke="#000" stroke-opacity="0" fill="#53b1e0"/><path d="M1512.18 602.75L1483.3 585l28.88-6.7v24.45z" stroke="#000" stroke-opacity="0" fill="#9cebff"/><path d="M1512.18 613.8l35.75-22.04-3.97-4.35-31.78 19.3v7.1z" stroke="#000" stroke-opacity="0" fill="url(#U)"/><path d="M1541.83 593.78v-.07c1.85-1.68 1.78-4.54 0-6.23l-8-7.67c-1.86-1.7-4.76-1.7-6.6 0l-8.02 7.67c-1.77 1.76-1.77 4.55 0 6.3l6.67 6.38c.3.26.36.52.36.9v11.84c0 .44.14.77.5 1.03l3.04 2.92c0 .07.08.07.08.07.42.4 1.06.32 1.4-.07l2.92-2.8 1.78-1.68c.2-.2.2-.6 0-.78l-1.2-1.18c-.3-.26-.36-.65-.08-.85 0-.06 0-.06.07-.06l1.2-1.23c.22-.2.22-.58 0-.84l-1.2-1.17c-.28-.2-.35-.52-.07-.78 0-.07 0-.07.07-.07l1.2-1.22c.22-.26.22-.6 0-.78l-1.77-1.7v-.64zm-11.35-12.16c1.5 0 2.7 1.17 2.7 2.54 0 1.43-1.2 2.53-2.7 2.53-1.4 0-2.62-1.1-2.62-2.54 0-1.37 1.2-2.54 2.62-2.54z" stroke="#000" stroke-opacity="0" fill="#ffca00"/><path d="M1528.5 613.34c.14.13.28.2.42.2.36-.07.57-.33.57-.6v-9.8c0-.2-.15-.4-.3-.52-.06-.07-.2-.07-.35-.07-.35 0-.56.33-.5.6v9.6c-.06.2-.06.46.15.6zM1524.8 590h11.78c.43 0 .7.27.7.72v.13c0 .46-.27.65-.7.65h-11.77c-.5 0-.7-.2-.7-.65v-.13c0-.45.2-.7.7-.7zM1524.8 592.4h11.78c.43 0 .7.27.7.73v.13c0 .45-.27.65-.7.65h-11.77c-.5 0-.7-.2-.7-.64v-.13c0-.46.2-.72.7-.72z" stroke="#000" stroke-opacity="0" fill="#ff9300" fill-opacity=".75"/><path d="M977.53 676.86V441.84" stroke="#3a414a" fill="none"/><path d="M978.03 677.36h-1v-.5h1zM977.3 440.3l.35 1.55h-.62v-3.5h.12z" stroke="#3a414a" stroke-width=".05" fill="#3a414a"/><path d="M778.73 240.47h144.6v49.8h-144.6z" fill="none"/><use xlink:href="#V" transform="matrix(1,0,0,1,778.7288773881578,240.4702936314193) translate(13.660493827160494 17.888888888888886)"/><use xlink:href="#W" transform="matrix(1,0,0,1,778.7288773881578,240.4702936314193) translate(51.537037037037045 17.888888888888886)"/><use xlink:href="#X" transform="matrix(1,0,0,1,778.7288773881578,240.4702936314193) translate(2.9444444444444287 39.22222222222222)"/><use xlink:href="#w" transform="matrix(1,0,0,1,778.7288773881578,240.4702936314193) translate(37.512345679012334 39.22222222222222)"/><use xlink:href="#Y" transform="matrix(1,0,0,1,778.7288773881578,240.4702936314193) translate(73.0679012345679 39.22222222222222)"/><path d="M1028.03 723.02h478.44a6 6 0 0 0 6-6V607.04" stroke="#3a414a" fill="none"/><path d="M1028.05 723.52h-.52v-1h.52zM1511.97 607.05v-.47l.2.13v.35z" stroke="#3a414a" stroke-width=".05" fill="#3a414a"/><path d="M1005.03 465.3h.1-.1z" stroke="#000" stroke-opacity="0" fill="#6bb9f2"/><path d="M1007.73 380.46h-77c-1.8 0-3.2 1.65-3.2 3.47v42.28c0 1.93 1.5 3.4 3.3 3.4h42.5v-16.63c0-1.28.8-2.37 1.9-2.74h.7c6.8 0 12.6-2.28 17.8-6.94 1.2-.74 2.4-1.2 3.8-1.47 1.6-.46 3-.64 4.7-.73 1.6 0 3 .1 4.6.46 1.6.36 2.8.82 4.1 1.64v-19.27c0-1.9-1.4-3.47-3.2-3.47zm-23.4 33.52v10.86h22.5v-10.86z" stroke="#000" stroke-opacity="0" fill="#821010"/><path d="M932.23 385.3h22.6V396h-22.6v-10.7z" stroke="#000" stroke-opacity="0" fill="#e62323"/><path d="M958.23 385.3h22.6V396h-22.6v-10.7z" stroke="#000" stroke-opacity="0" fill="#ff7381"/><path d="M984.33 385.3h22.6V396h-22.6v-10.7zM932.23 399.64h9.4v10.68h-9.4v-10.68z" stroke="#000" stroke-opacity="0" fill="#e62323"/><path d="M1006.83 399.64v2.1c-1.6-.37-3-.55-4.6-.64-1.7 0-3.1.18-4.7.46v-1.92zM945.13 399.64h22.6v10.68h-22.6v-10.68z" stroke="#000" stroke-opacity="0" fill="#ff7381"/><path d="M993.73 399.64v3.65c-5.2 4.65-11 6.84-17.8 6.84h-4.8v-10.5zM932.23 413.98h22.6v10.68h-22.6v-10.68z" stroke="#000" stroke-opacity="0" fill="#e62323"/><path d="M958.23 413.98h15.1v10.68h-15.1v-10.68z" stroke="#000" stroke-opacity="0" fill="#ff7381"/><path d="M1027.53 436.7c0 17.82-20 31.97-24.3 34.8-.6.37-1.2.37-1.7 0-4.5-2.83-24.5-16.98-24.5-34.8v-21.17c0-.92.7-1.65 1.6-1.74 15.5-.37 11.9-7.68 23.6-7.68 11.6 0 8 7.3 23.6 7.67.8.08 1.5.8 1.5 1.73z" stroke="#000" stroke-opacity="0" fill="#dfa500"/><path d="M1002.23 439v-30.14c10.7 0 7.4 6.67 21.6 7.12.8 0 1.5.64 1.5 1.56v21.19zm0 0h-23c1.4 15.24 18.4 27.3 22.2 29.67h.7z" stroke="#000" stroke-opacity="0" fill="url(#Z)"/><path d="M980.53 415.98c14.3-.45 11.1-7.12 21.7-7.12V439h-23v-21.46c0-.83.5-1.56 1.3-1.56zM1025.23 439h-23v30.13h.6c4-2.74 21-14.6 22.4-30.13z" stroke="#000" stroke-opacity="0" fill="#ffd400"/><path d="M317.2 113.9c3.53-3 3.53-7.9 0-10.85l-15.53-13.27v-.06c-3.53-2.95-9.2-2.95-12.7.06l-15.53 13.27c-3.47 3-3.47 7.84 0 10.85l13.1 11.2c.48.4.72.86.72 1.46v20.5c0 .74.3 1.35.88 1.88l5.88 5.03c.05 0 .05.06.1.06.8.67 2.06.6 2.8-.06l5.68-4.9 3.38-2.8c0-.08 0-.08.05-.08.4-.4.4-1-.05-1.35l-2.4-2.07c-.54-.47-.54-1.14-.05-1.54 0 0 0-.07.05-.07l2.4-2.08.05-.07c.4-.34.4-.94-.05-1.34l-2.55-2.23c-.5-.33-.54-1-.05-1.47h.05l2.6-2.2c.05 0 .05-.08.05-.08.44-.4.44-1-.05-1.34l-3.33-2.88v-1.07zm-21.8-20.97c2.84.07 5.14 2 5.1 4.42 0 2.42-2.3 4.43-5.15 4.36-2.85 0-5.1-1.93-5.1-4.35-.05-2.4 2.2-4.35 5.05-4.42h.05z" stroke="#000" stroke-opacity="0" fill="url(#aa)"/><path d="M291.33 147.4c.15.13.34.13.54.13.6.07 1.08-.4 1.12-.87v-16.54c0-.34-.2-.6-.5-.8-.2-.14-.44-.2-.68-.2-.6.06-1.03.46-1.03 1v16.54c.04.34.2.6.53.74zM284.32 107.47h22.74c.93 0 1.37.4 1.37 1.14v.2c0 .8-.44 1.22-1.37 1.22h-22.74c-.93 0-1.42-.4-1.42-1.2v-.2c0-.75.5-1.15 1.42-1.15zM284.32 111.62h22.74c.93 0 1.37.4 1.37 1.2v.14c0 .8-.44 1.2-1.37 1.2h-22.74c-.93 0-1.42-.4-1.42-1.2v-.13c0-.8.5-1.2 1.42-1.2z" stroke="#000" stroke-opacity="0" fill="#ff9300" fill-opacity=".75"/><path d="M412.36 725.68H564.4" stroke="#3a414a" fill="none"/><path d="M412.37 726.18h-.5v-1h.5zM564.92 725.88l.06.3h-.6v-1h.5z" stroke="#3a414a" stroke-width=".05" fill="#3a414a"/><path d="M619.84 725.68H772.1a1.33 1.33 0 0 0 1.34-1.33 1.33 1.33 0 0 1 1.33-1.33h152.26" stroke="#3a414a" fill="none"/><path d="M619.85 726.18h-.55l.08-1h.47zM927.53 723.52h-.5v-1h.5z" stroke="#3a414a" stroke-width=".05" fill="#3a414a"/><path d="M331.86 710.87h80v43.66c0 1.45-1.2 2.65-2.72 2.65h-74.56c-1.52 0-2.72-1.2-2.72-2.65v-43.66z" stroke="#000" stroke-opacity="0" fill="url(#ab)"/><path d="M334.58 694.18h74.56c1.52 0 2.72 1.2 2.72 2.64v14.05h-80v-14.1c0-1.46 1.2-2.6 2.72-2.6z" stroke="#000" stroke-opacity="0" fill="#767676"/><path d="M396.34 731.16c0 3.46-2.88 6.36-6.48 6.36-3.6 0-6.48-2.9-6.48-6.36 0-3.53 2.88-6.37 6.48-6.37 3.6 0 6.48 2.83 6.48 6.36zM378.66 731.16c0 3.46-2.96 6.36-6.48 6.36-3.6 0-6.56-2.9-6.56-6.36 0-3.53 2.96-6.37 6.56-6.37 3.52 0 6.48 2.83 6.48 6.36zM360.34 731.16c0 3.46-2.88 6.36-6.48 6.36-3.6 0-6.48-2.9-6.48-6.36 0-3.53 2.88-6.37 6.48-6.37 3.6 0 6.48 2.83 6.48 6.36zM343.94 699.15h55.84c.88 0 1.36.44 1.36 1.26v4.17c0 .88-.48 1.32-1.36 1.32h-55.84c-.88 0-1.28-.45-1.28-1.33v-4.16c0-.8.4-1.25 1.28-1.25z" stroke="#000" stroke-opacity="0" fill="#f2f2f2"/><path d="M663.47 631.72a6 6 0 0 1 6-6h188a6 6 0 0 1 6 6v182.6a6 6 0 0 1-6 6h-188a6 6 0 0 1-6-6z" stroke="#bfbfbf" fill="#f0f0f0"/><g><use xlink:href="#ac" transform="matrix(1,0,0,1,683.4685704854485,645.7150504513291) translate(0 14.222222222222223)"/></g><path d="M698.07 757.18h130.8v60h-130.8z" fill="none"/><g><use xlink:href="#ad" transform="matrix(1,0,0,1,698.0660189259644,757.176471815426) translate(26.561728395061728 33.55555555555556)"/></g><path d="M782.37 686.46h5.25c.77 0 1.4.63 1.4 1.45v14.7c0 .8-.63 1.44-1.4 1.44h-5.25v-17.58zM782.37 712.04h5.25c.77 0 1.4.63 1.4 1.45v24.56c0 .8-.63 1.44-1.4 1.44h-5.25v-27.46z" stroke="#000" stroke-opacity="0" fill="#ffca00"/><path d="M728.54 680.54h51.03c1.9 0 2.8.94 2.8 2.9v57.2c0 1.95-.9 2.9-2.8 2.9h-51.03c-1.9 0-2.8-.95-2.8-2.9v-57.2c0-1.96.9-2.9 2.8-2.9z" stroke="#000" stroke-opacity="0" fill="url(#ae)"/><path d="M741.28 728.42h-2.94c-.5 0-.84-.44-.77-.9v-35.08c-.07-.44.28-.82.7-.82H746.24c.5 0 .85.38.85.82 0 .5-.36.9-.85.9h-7.14v33.3h2.18c.42 0 .77.45.77.9 0 .44-.35.8-.77.88z" stroke="#000" stroke-opacity="0" fill="#b4ec36"/><path d="M741.7 732.7h-6.65c-.42 0-.77-.44-.77-.88l-.5-43.4c-.06-.26.08-.45.22-.64.14-.12.35-.25.56-.25h11.7v1.76H735.4l.5 41.64h5.8zM766.34 728.86h-6.5c-.22 0-.43-.13-.57-.32-.2-.12-.28-.38-.28-.56v-20.54c0-.44.34-.82.76-.88h3.78v-9.45h1.54v10.27c.07.45-.28.82-.7.9h-3.78v18.57h5.74z" stroke="#000" stroke-opacity="0" fill="#b4ec36"/><path d="M747.16 683.88h23.1c.77 0 1.12.3 1.12 1.07v10.9c0 .7-.35 1.07-1.12 1.07h-23.1c-.7 0-1.12-.38-1.12-1.07v-10.9c0-.76.42-1.07 1.12-1.07z" stroke="#000" stroke-opacity="0" fill="#365615"/><path d="M753.4 720.67v18.4c0 .7-.36 1.06-1.06 1.06h-2.38c-.7 0-1.05-.37-1.05-1.07v-18.4c0-.75.36-1.13 1.06-1.13h2.38c.7 0 1.05.38 1.05 1.14zM745.76 720.73v18.4c0 .75-.35 1.07-1.12 1.07h-2.3c-.7 0-1.06-.32-1.06-1.07v-18.4c0-.76.35-1.07 1.05-1.07h2.3c.78 0 1.13.3 1.13 1.07z" stroke="#000" stroke-opacity="0" stroke-width="0" fill="#365615"/><path d="M770.4 720.73v18.4c0 .75-.42 1.07-1.12 1.07h-2.3c-.7 0-1.13-.32-1.13-1.07v-18.4c0-.76.42-1.07 1.12-1.07h2.3c.7 0 1.13.3 1.13 1.07z" stroke="#000" stroke-opacity="0" stroke-width="0" fill="#f2f2f2"/><path d="M750.38 703.4c2.3 0 4.27 2.08 4.27 4.67 0 2.64-1.96 4.72-4.27 4.72-2.38 0-4.34-2.1-4.34-4.73 0-2.6 1.96-4.66 4.34-4.66z" stroke="#000" stroke-opacity="0" fill="#f2f2f2"/><path d="M725.67 725.7h-5.25c-.7 0-1.33-.56-1.4-1.25V699.8c0-.8.63-1.43 1.4-1.43h5.25v27.34z" stroke="#000" stroke-opacity="0" fill="#3b3b3b"/><path d="M822.5 648.06V577.9M822.5 648.02v1.54" stroke="#1071e5" stroke-width="3" fill="none"/><path d="M837.5 563.4c0 8.3-6.73 15-15 15-8.3 0-15-6.7-15-15 0-8.27 6.7-15 15-15 8.27 0 15 6.73 15 15z" stroke="#1071e5" stroke-width="3" fill="#1071e5"/><path d="M936.94 1076h80v39.5c0 1.3-1.2 2.4-2.72 2.4h-74.56c-1.52 0-2.72-1.1-2.72-2.4V1076z" stroke="#000" stroke-opacity="0" fill="url(#af)"/><path d="M939.66 1060.9h74.56c1.52 0 2.72 1.08 2.72 2.4v12.7h-80v-12.77c0-1.3 1.2-2.34 2.72-2.34z" stroke="#000" stroke-opacity="0" fill="#37c2b1"/><path d="M947.82 1080.56h58.24c.64.05 1.2.5 1.2 1.14v5.8c0 .64-.56 1.15-1.2 1.15h-58.24c-.72 0-1.2-.5-1.2-1.14v-5.8c0-.63.48-1.1 1.2-1.14z" stroke="#000" stroke-opacity="0" fill="#fff"/><path d="M947.82 1092.2h58.24c.72.04 1.2.5 1.2 1.13v5.87c0 .62-.48 1.14-1.2 1.14h-58.24c-.64 0-1.2-.52-1.2-1.14v-5.65c-.08-.62.32-1.2 1.04-1.3.08 0 .16-.06.16-.06z" stroke="#000" stroke-opacity="0" fill="#37c2b1"/><path d="M947.82 1103.98h58.24c.72 0 1.2.52 1.2 1.1v5.92c0 .57-.48 1.08-1.2 1.08h-58.24c-.64 0-1.2-.5-1.2-1.08v-5.93c0-.57.56-1.1 1.2-1.1z" stroke="#000" stroke-opacity="0" fill="#258277"/><defs><path fill="#3a414a" d="M115-194c53 0 69 39 70 98 0 66-23 100-70 100C84 3 66-7 56-30L54 0H23l1-261h32v101c10-23 28-34 59-34zm-8 174c40 0 45-34 45-75 0-40-5-75-45-74-42 0-51 32-51 76 0 43 10 73 51 73" id="ag"/><path fill="#3a414a" d="M100-194c62-1 85 37 85 99 1 63-27 99-86 99S16-35 15-95c0-66 28-99 85-99zM99-20c44 1 53-31 53-75 0-43-8-75-51-75s-53 32-53 75 10 74 51 75" id="ah"/><path fill="#3a414a" d="M59-47c-2 24 18 29 38 22v24C64 9 27 4 27-40v-127H5v-23h24l9-43h21v43h35v23H59v120" id="ai"/><g id="b"><use transform="matrix(0.04938271604938272,0,0,0.04938271604938272,0,0)" xlink:href="#ag"/><use transform="matrix(0.04938271604938272,0,0,0.04938271604938272,9.876543209876544,0)" xlink:href="#ah"/><use transform="matrix(0.04938271604938272,0,0,0.04938271604938272,19.75308641975309,0)" xlink:href="#ah"/><use transform="matrix(0.04938271604938272,0,0,0.04938271604938272,29.629629629629633,0)" xlink:href="#ai"/></g><path fill="#3a414a" d="M85-194c31 0 48 13 60 33l-1-100h32l1 261h-30c-2-10 0-23-3-31C134-8 116 4 85 4 32 4 16-35 15-94c0-66 23-100 70-100zm9 24c-40 0-46 34-46 75 0 40 6 74 45 74 42 0 51-32 51-76 0-42-9-74-50-73" id="aj"/><path fill="#3a414a" d="M24-231v-30h32v30H24zM24 0v-190h32V0H24" id="ak"/><path fill="#3a414a" d="M141-36C126-15 110 5 73 4 37 3 15-17 15-53c-1-64 63-63 125-63 3-35-9-54-41-54-24 1-41 7-42 31l-33-3c5-37 33-52 76-52 45 0 72 20 72 64v82c-1 20 7 32 28 27v20c-31 9-61-2-59-35zM48-53c0 20 12 33 32 33 41-3 63-29 60-74-43 2-92-5-92 41" id="al"/><path fill="#3a414a" d="M177-190C167-65 218 103 67 71c-23-6-38-20-44-43l32-5c15 47 100 32 89-28v-30C133-14 115 1 83 1 29 1 15-40 15-95c0-56 16-97 71-98 29-1 48 16 59 35 1-10 0-23 2-32h30zM94-22c36 0 50-32 50-73 0-42-14-75-50-75-39 0-46 34-46 75s6 73 46 73" id="am"/><path fill="#3a414a" d="M117-194c89-4 53 116 60 194h-32v-121c0-31-8-49-39-48C34-167 62-67 57 0H25l-1-190h30c1 10-1 24 2 32 11-22 29-35 61-36" id="an"/><path fill="#3a414a" d="M135-143c-3-34-86-38-87 0 15 53 115 12 119 90S17 21 10-45l28-5c4 36 97 45 98 0-10-56-113-15-118-90-4-57 82-63 122-42 12 7 21 19 24 35" id="ao"/><path fill="#3a414a" d="M96-169c-40 0-48 33-48 73s9 75 48 75c24 0 41-14 43-38l32 2c-6 37-31 61-74 61-59 0-76-41-82-99-10-93 101-131 147-64 4 7 5 14 7 22l-32 3c-4-21-16-35-41-35" id="ap"/><g id="c"><use transform="matrix(0.04938271604938272,0,0,0.04938271604938272,0,0)" xlink:href="#aj"/><use transform="matrix(0.04938271604938272,0,0,0.04938271604938272,9.876543209876544,0)" xlink:href="#ak"/><use transform="matrix(0.04938271604938272,0,0,0.04938271604938272,13.777777777777779,0)" xlink:href="#al"/><use transform="matrix(0.04938271604938272,0,0,0.04938271604938272,23.654320987654323,0)" xlink:href="#am"/><use transform="matrix(0.04938271604938272,0,0,0.04938271604938272,33.53086419753087,0)" xlink:href="#an"/><use transform="matrix(0.04938271604938272,0,0,0.04938271604938272,43.40740740740741,0)" xlink:href="#ah"/><use transform="matrix(0.04938271604938272,0,0,0.04938271604938272,53.283950617283956,0)" xlink:href="#ao"/><use transform="matrix(0.04938271604938272,0,0,0.04938271604938272,62.17283950617284,0)" xlink:href="#ai"/><use transform="matrix(0.04938271604938272,0,0,0.04938271604938272,67.11111111111111,0)" xlink:href="#ak"/><use transform="matrix(0.04938271604938272,0,0,0.04938271604938272,71.01234567901236,0)" xlink:href="#ap"/><use transform="matrix(0.04938271604938272,0,0,0.04938271604938272,79.90123456790124,0)" xlink:href="#ao"/></g><path fill="#3a414a" d="M234-2c-28 10-62 0-77-18C117 19 8 12 13-65c3-43 29-61 60-76-25-40-17-114 47-108 35 3 59 15 59 50 0 44-40 53-71 69 14 26 32 50 51 72 14-21 24-43 30-72l26 8c-9 33-21 57-38 82 13 13 33 22 57 15v23zM97-151c25-10 52-18 56-48-1-18-13-29-33-29-42 0-39 50-23 77zM42-66c-3 51 71 58 98 28-20-24-41-51-56-80-23 10-40 24-42 52" id="aq"/><use transform="matrix(0.04938271604938272,0,0,0.04938271604938272,0,0)" xlink:href="#aq" id="d"/><path fill="#3a414a" d="M100-194c63 0 86 42 84 106H49c0 40 14 67 53 68 26 1 43-12 49-29l28 8c-11 28-37 45-77 45C44 4 14-33 15-96c1-61 26-98 85-98zm52 81c6-60-76-77-97-28-3 7-6 17-6 28h103" id="ar"/><path fill="#3a414a" d="M114-163C36-179 61-72 57 0H25l-1-190h30c1 12-1 29 2 39 6-27 23-49 58-41v29" id="as"/><path fill="#3a414a" d="M24 0v-261h32V0H24" id="at"/><g id="e"><use transform="matrix(0.04938271604938272,0,0,0.04938271604938272,0,0)" xlink:href="#ao"/><use transform="matrix(0.04938271604938272,0,0,0.04938271604938272,8.88888888888889,0)" xlink:href="#ar"/><use transform="matrix(0.04938271604938272,0,0,0.04938271604938272,18.765432098765434,0)" xlink:href="#as"/><use transform="matrix(0.04938271604938272,0,0,0.04938271604938272,24.641975308641978,0)" xlink:href="#ak"/><use transform="matrix(0.04938271604938272,0,0,0.04938271604938272,28.543209876543212,0)" xlink:href="#al"/><use transform="matrix(0.04938271604938272,0,0,0.04938271604938272,38.41975308641976,0)" xlink:href="#at"/></g><g id="f"><use transform="matrix(0.04938271604938272,0,0,0.04938271604938272,0,0)" xlink:href="#ap"/><use transform="matrix(0.04938271604938272,0,0,0.04938271604938272,8.88888888888889,0)" xlink:href="#ah"/><use transform="matrix(0.04938271604938272,0,0,0.04938271604938272,18.765432098765434,0)" xlink:href="#an"/><use transform="matrix(0.04938271604938272,0,0,0.04938271604938272,28.641975308641978,0)" xlink:href="#ao"/><use transform="matrix(0.04938271604938272,0,0,0.04938271604938272,37.53086419753087,0)" xlink:href="#ah"/><use transform="matrix(0.04938271604938272,0,0,0.04938271604938272,47.40740740740741,0)" xlink:href="#at"/><use transform="matrix(0.04938271604938272,0,0,0.04938271604938272,51.308641975308646,0)" xlink:href="#ar"/></g><linearGradient gradientUnits="userSpaceOnUse" id="g" x1="592.17" y1="698.2" x2="592.17" y2="753.16"><stop offset="0%" stop-color="#5ea0ef"/><stop offset="18%" stop-color="#559cec"/><stop offset="47%" stop-color="#3c91e5"/><stop offset="84%" stop-color="#1380da"/><stop offset="100%" stop-color="#0078d4"/></linearGradient><path fill="#3a414a" d="M185-189c-5-48-123-54-124 2 14 75 158 14 163 119 3 78-121 87-175 55-17-10-28-26-33-46l33-7c5 56 141 63 141-1 0-78-155-14-162-118-5-82 145-84 179-34 5 7 8 16 11 25" id="au"/><g id="h"><use transform="matrix(0.04938271604938272,0,0,0.04938271604938272,0,0)" xlink:href="#au"/><use transform="matrix(0.04938271604938272,0,0,0.04938271604938272,11.851851851851853,0)" xlink:href="#ai"/><use transform="matrix(0.04938271604938272,0,0,0.04938271604938272,16.790123456790127,0)" xlink:href="#ah"/><use transform="matrix(0.04938271604938272,0,0,0.04938271604938272,26.666666666666668,0)" xlink:href="#as"/><use transform="matrix(0.04938271604938272,0,0,0.04938271604938272,32.543209876543216,0)" xlink:href="#al"/><use transform="matrix(0.04938271604938272,0,0,0.04938271604938272,42.41975308641976,0)" xlink:href="#am"/><use transform="matrix(0.04938271604938272,0,0,0.04938271604938272,52.2962962962963,0)" xlink:href="#ar"/></g><path fill="#3a414a" d="M205 0l-28-72H64L36 0H1l101-248h38L239 0h-34zm-38-99l-47-123c-12 45-31 82-46 123h93" id="av"/><path fill="#3a414a" d="M84 4C-5 8 30-112 23-190h32v120c0 31 7 50 39 49 72-2 45-101 50-169h31l1 190h-30c-1-10 1-25-2-33-11 22-28 36-60 37" id="aw"/><g id="i"><use transform="matrix(0.04938271604938272,0,0,0.04938271604938272,0,0)" xlink:href="#av"/><use transform="matrix(0.04938271604938272,0,0,0.04938271604938272,11.851851851851853,0)" xlink:href="#ap"/><use transform="matrix(0.04938271604938272,0,0,0.04938271604938272,20.74074074074074,0)" xlink:href="#ap"/><use transform="matrix(0.04938271604938272,0,0,0.04938271604938272,29.629629629629633,0)" xlink:href="#ah"/><use transform="matrix(0.04938271604938272,0,0,0.04938271604938272,39.50617283950618,0)" xlink:href="#aw"/><use transform="matrix(0.04938271604938272,0,0,0.04938271604938272,49.38271604938272,0)" xlink:href="#an"/><use transform="matrix(0.04938271604938272,0,0,0.04938271604938272,59.25925925925927,0)" xlink:href="#ai"/></g><path fill="#3a414a" d="M190 0L58-211 59 0H30v-248h39L202-35l-2-213h31V0h-41" id="ax"/><path fill="#3a414a" d="M206 0h-36l-40-164L89 0H53L-1-190h32L70-26l43-164h34l41 164 42-164h31" id="ay"/><path fill="#3a414a" d="M143 0L79-87 56-68V0H24v-261h32v163l83-92h37l-77 82L181 0h-38" id="az"/><g id="j"><use transform="matrix(0.04938271604938272,0,0,0.04938271604938272,0,0)" xlink:href="#ax"/><use transform="matrix(0.04938271604938272,0,0,0.04938271604938272,12.790123456790125,0)" xlink:href="#ar"/><use transform="matrix(0.04938271604938272,0,0,0.04938271604938272,22.66666666666667,0)" xlink:href="#ai"/><use transform="matrix(0.04938271604938272,0,0,0.04938271604938272,27.604938271604947,0)" xlink:href="#ay"/><use transform="matrix(0.04938271604938272,0,0,0.04938271604938272,40.39506172839507,0)" xlink:href="#ah"/><use transform="matrix(0.04938271604938272,0,0,0.04938271604938272,50.271604938271615,0)" xlink:href="#as"/><use transform="matrix(0.04938271604938272,0,0,0.04938271604938272,56.14814814814817,0)" xlink:href="#az"/></g><path fill="#3a414a" d="M179-190L93 31C79 59 56 82 12 73V49c39 6 53-20 64-50L1-190h34L92-34l54-156h33" id="aA"/><g id="k"><use transform="matrix(0.04938271604938272,0,0,0.04938271604938272,0,0)" xlink:href="#au"/><use transform="matrix(0.04938271604938272,0,0,0.04938271604938272,11.851851851851853,0)" xlink:href="#ar"/><use transform="matrix(0.04938271604938272,0,0,0.04938271604938272,21.7283950617284,0)" xlink:href="#ap"/><use transform="matrix(0.04938271604938272,0,0,0.04938271604938272,30.617283950617285,0)" xlink:href="#aw"/><use transform="matrix(0.04938271604938272,0,0,0.04938271604938272,40.49382716049384,0)" xlink:href="#as"/><use transform="matrix(0.04938271604938272,0,0,0.04938271604938272,46.37037037037038,0)" xlink:href="#ak"/><use transform="matrix(0.04938271604938272,0,0,0.04938271604938272,50.271604938271615,0)" xlink:href="#ai"/><use transform="matrix(0.04938271604938272,0,0,0.04938271604938272,55.209876543209894,0)" xlink:href="#aA"/></g><path fill="#3a414a" d="M143 4C61 4 22-44 18-125c-5-107 100-154 193-111 17 8 29 25 37 43l-32 9c-13-25-37-40-76-40-61 0-88 39-88 99 0 61 29 100 91 101 35 0 62-11 79-27v-45h-74v-28h105v86C228-13 192 4 143 4" id="aB"/><path fill="#3a414a" d="M115-194c55 1 70 41 70 98S169 2 115 4C84 4 66-9 55-30l1 105H24l-1-265h31l2 30c10-21 28-34 59-34zm-8 174c40 0 45-34 45-75s-6-73-45-74c-42 0-51 32-51 76 0 43 10 73 51 73" id="aC"/><g id="l"><use transform="matrix(0.04938271604938272,0,0,0.04938271604938272,0,0)" xlink:href="#aB"/><use transform="matrix(0.04938271604938272,0,0,0.04938271604938272,13.827160493827162,0)" xlink:href="#as"/><use transform="matrix(0.04938271604938272,0,0,0.04938271604938272,19.703703703703706,0)" xlink:href="#ah"/><use transform="matrix(0.04938271604938272,0,0,0.04938271604938272,29.58024691358025,0)" xlink:href="#aw"/><use transform="matrix(0.04938271604938272,0,0,0.04938271604938272,39.4567901234568,0)" xlink:href="#aC"/></g><path fill="#3a414a" d="M108 0H70L1-190h34L89-25l56-165h34" id="aD"/><g id="m"><use transform="matrix(0.04938271604938272,0,0,0.04938271604938272,0,0)" xlink:href="#aD"/><use transform="matrix(0.04938271604938272,0,0,0.04938271604938272,8.88888888888889,0)" xlink:href="#ak"/><use transform="matrix(0.04938271604938272,0,0,0.04938271604938272,12.790123456790125,0)" xlink:href="#as"/><use transform="matrix(0.04938271604938272,0,0,0.04938271604938272,18.666666666666668,0)" xlink:href="#ai"/><use transform="matrix(0.04938271604938272,0,0,0.04938271604938272,23.60493827160494,0)" xlink:href="#aw"/><use transform="matrix(0.04938271604938272,0,0,0.04938271604938272,33.48148148148148,0)" xlink:href="#al"/><use transform="matrix(0.04938271604938272,0,0,0.04938271604938272,43.358024691358025,0)" xlink:href="#at"/></g><g id="n"><use transform="matrix(0.04938271604938272,0,0,0.04938271604938272,0,0)" xlink:href="#an"/><use transform="matrix(0.04938271604938272,0,0,0.04938271604938272,9.876543209876544,0)" xlink:href="#ar"/><use transform="matrix(0.04938271604938272,0,0,0.04938271604938272,19.75308641975309,0)" xlink:href="#ai"/><use transform="matrix(0.04938271604938272,0,0,0.04938271604938272,24.69135802469136,0)" xlink:href="#ay"/><use transform="matrix(0.04938271604938272,0,0,0.04938271604938272,37.48148148148149,0)" xlink:href="#ah"/><use transform="matrix(0.04938271604938272,0,0,0.04938271604938272,47.35802469135803,0)" xlink:href="#as"/><use transform="matrix(0.04938271604938272,0,0,0.04938271604938272,53.23456790123457,0)" xlink:href="#az"/></g><path fill="#3a414a" d="M9 0v-24l116-142H16v-24h144v24L44-24h123V0H9" id="aE"/><g id="o"><use transform="matrix(0.04938271604938272,0,0,0.04938271604938272,0,0)" xlink:href="#av"/><use transform="matrix(0.04938271604938272,0,0,0.04938271604938272,11.851851851851853,0)" xlink:href="#aE"/><use transform="matrix(0.04938271604938272,0,0,0.04938271604938272,20.74074074074074,0)" xlink:href="#aw"/><use transform="matrix(0.04938271604938272,0,0,0.04938271604938272,30.617283950617285,0)" xlink:href="#as"/><use transform="matrix(0.04938271604938272,0,0,0.04938271604938272,36.49382716049383,0)" xlink:href="#ar"/></g><g id="p"><use transform="matrix(0.04938271604938272,0,0,0.04938271604938272,0,0)" xlink:href="#au"/><use transform="matrix(0.04938271604938272,0,0,0.04938271604938272,11.851851851851853,0)" xlink:href="#aw"/><use transform="matrix(0.04938271604938272,0,0,0.04938271604938272,21.7283950617284,0)" xlink:href="#ag"/><use transform="matrix(0.04938271604938272,0,0,0.04938271604938272,31.60493827160494,0)" xlink:href="#ao"/><use transform="matrix(0.04938271604938272,0,0,0.04938271604938272,40.49382716049384,0)" xlink:href="#ap"/><use transform="matrix(0.04938271604938272,0,0,0.04938271604938272,49.38271604938272,0)" xlink:href="#as"/><use transform="matrix(0.04938271604938272,0,0,0.04938271604938272,55.25925925925927,0)" xlink:href="#ak"/><use transform="matrix(0.04938271604938272,0,0,0.04938271604938272,59.1604938271605,0)" xlink:href="#aC"/><use transform="matrix(0.04938271604938272,0,0,0.04938271604938272,69.03703703703704,0)" xlink:href="#ai"/><use transform="matrix(0.04938271604938272,0,0,0.04938271604938272,73.97530864197532,0)" xlink:href="#ak"/><use transform="matrix(0.04938271604938272,0,0,0.04938271604938272,77.87654320987656,0)" xlink:href="#ah"/><use transform="matrix(0.04938271604938272,0,0,0.04938271604938272,87.7530864197531,0)" xlink:href="#an"/></g><path fill="#3a414a" d="M30-248c87 1 191-15 191 75 0 78-77 80-158 76V0H30v-248zm33 125c57 0 124 11 124-50 0-59-68-47-124-48v98" id="aF"/><g id="q"><use transform="matrix(0.04938271604938272,0,0,0.04938271604938272,0,0)" xlink:href="#aF"/><use transform="matrix(0.04938271604938272,0,0,0.04938271604938272,11.851851851851853,0)" xlink:href="#aw"/><use transform="matrix(0.04938271604938272,0,0,0.04938271604938272,21.7283950617284,0)" xlink:href="#ag"/><use transform="matrix(0.04938271604938272,0,0,0.04938271604938272,31.60493827160494,0)" xlink:href="#at"/><use transform="matrix(0.04938271604938272,0,0,0.04938271604938272,35.50617283950618,0)" xlink:href="#ak"/><use transform="matrix(0.04938271604938272,0,0,0.04938271604938272,39.40740740740741,0)" xlink:href="#ap"/></g><path fill="#3a414a" d="M33 0v-248h34V0H33" id="aG"/><g id="r"><use transform="matrix(0.04938271604938272,0,0,0.04938271604938272,0,0)" xlink:href="#aG"/><use transform="matrix(0.04938271604938272,0,0,0.04938271604938272,4.938271604938272,0)" xlink:href="#aF"/></g><path fill="#3a414a" d="M87 75C49 33 22-17 22-94c0-76 28-126 65-167h31c-38 41-64 92-64 168S80 34 118 75H87" id="aH"/><path fill="#3a414a" d="M140-251c81 0 123 46 123 126C263-46 219 4 140 4 59 4 17-45 17-125s42-126 123-126zm0 227c63 0 89-41 89-101s-29-99-89-99c-61 0-89 39-89 99S79-25 140-24" id="aI"/><path fill="#3a414a" d="M33-261c38 41 65 92 65 168S71 34 33 75H2C39 34 66-17 66-93S39-220 2-261h31" id="aJ"/><g id="s"><use transform="matrix(0.04938271604938272,0,0,0.04938271604938272,0,0)" xlink:href="#aH"/><use transform="matrix(0.04938271604938272,0,0,0.04938271604938272,5.8765432098765435,0)" xlink:href="#aI"/><use transform="matrix(0.04938271604938272,0,0,0.04938271604938272,19.703703703703706,0)" xlink:href="#aC"/><use transform="matrix(0.04938271604938272,0,0,0.04938271604938272,29.58024691358025,0)" xlink:href="#ai"/><use transform="matrix(0.04938271604938272,0,0,0.04938271604938272,34.51851851851852,0)" xlink:href="#ak"/><use transform="matrix(0.04938271604938272,0,0,0.04938271604938272,38.41975308641975,0)" xlink:href="#ah"/><use transform="matrix(0.04938271604938272,0,0,0.04938271604938272,48.2962962962963,0)" xlink:href="#an"/><use transform="matrix(0.04938271604938272,0,0,0.04938271604938272,58.17283950617284,0)" xlink:href="#al"/><use transform="matrix(0.04938271604938272,0,0,0.04938271604938272,68.0493827160494,0)" xlink:href="#at"/><use transform="matrix(0.04938271604938272,0,0,0.04938271604938272,71.95061728395063,0)" xlink:href="#aJ"/></g><path fill="#3a414a" d="M30-248c118-7 216 8 213 122C240-48 200 0 122 0H30v-248zM63-27c89 8 146-16 146-99s-60-101-146-95v194" id="aK"/><g id="t"><use transform="matrix(0.04938271604938272,0,0,0.04938271604938272,0,0)" xlink:href="#av"/><use transform="matrix(0.04938271604938272,0,0,0.04938271604938272,11.851851851851853,0)" xlink:href="#av"/><use transform="matrix(0.04938271604938272,0,0,0.04938271604938272,23.703703703703706,0)" xlink:href="#aK"/></g><path fill="#3a414a" d="M240 0l2-218c-23 76-54 145-80 218h-23L58-218 59 0H30v-248h44l77 211c21-75 51-140 76-211h43V0h-30" id="aL"/><g id="u"><use transform="matrix(0.04938271604938272,0,0,0.04938271604938272,0,0)" xlink:href="#aL"/><use transform="matrix(0.04938271604938272,0,0,0.04938271604938272,14.765432098765434,0)" xlink:href="#al"/><use transform="matrix(0.04938271604938272,0,0,0.04938271604938272,24.641975308641978,0)" xlink:href="#an"/><use transform="matrix(0.04938271604938272,0,0,0.04938271604938272,34.51851851851852,0)" xlink:href="#al"/><use transform="matrix(0.04938271604938272,0,0,0.04938271604938272,44.39506172839506,0)" xlink:href="#am"/><use transform="matrix(0.04938271604938272,0,0,0.04938271604938272,54.27160493827161,0)" xlink:href="#ar"/><use transform="matrix(0.04938271604938272,0,0,0.04938271604938272,64.14814814814815,0)" xlink:href="#aj"/></g><g id="v"><use transform="matrix(0.04938271604938272,0,0,0.04938271604938272,0,0)" xlink:href="#aG"/><use transform="matrix(0.04938271604938272,0,0,0.04938271604938272,4.938271604938272,0)" xlink:href="#aj"/><use transform="matrix(0.04938271604938272,0,0,0.04938271604938272,14.814814814814817,0)" xlink:href="#ar"/><use transform="matrix(0.04938271604938272,0,0,0.04938271604938272,24.69135802469136,0)" xlink:href="#an"/><use transform="matrix(0.04938271604938272,0,0,0.04938271604938272,34.567901234567906,0)" xlink:href="#ai"/><use transform="matrix(0.04938271604938272,0,0,0.04938271604938272,39.50617283950618,0)" xlink:href="#ak"/><use transform="matrix(0.04938271604938272,0,0,0.04938271604938272,43.40740740740741,0)" xlink:href="#ai"/><use transform="matrix(0.04938271604938272,0,0,0.04938271604938272,48.345679012345684,0)" xlink:href="#aA"/></g><path fill="#3a414a" d="M194 0L95-120 63-95V0H30v-248h33v124l119-124h40L117-140 236 0h-42" id="aM"/><g id="w"><use transform="matrix(0.04938271604938272,0,0,0.04938271604938272,0,0)" xlink:href="#aM"/><use transform="matrix(0.04938271604938272,0,0,0.04938271604938272,11.851851851851853,0)" xlink:href="#ar"/><use transform="matrix(0.04938271604938272,0,0,0.04938271604938272,21.7283950617284,0)" xlink:href="#aA"/></g><path fill="#3a414a" d="M137 0h-34L2-248h35l83 218 83-218h36" id="aN"/><g id="x"><use transform="matrix(0.04938271604938272,0,0,0.04938271604938272,0,0)" xlink:href="#aN"/><use transform="matrix(0.04938271604938272,0,0,0.04938271604938272,10.518518518518519,0)" xlink:href="#al"/><use transform="matrix(0.04938271604938272,0,0,0.04938271604938272,20.395061728395063,0)" xlink:href="#aw"/><use transform="matrix(0.04938271604938272,0,0,0.04938271604938272,30.271604938271608,0)" xlink:href="#at"/><use transform="matrix(0.04938271604938272,0,0,0.04938271604938272,34.17283950617284,0)" xlink:href="#ai"/></g><g id="y"><use transform="matrix(0.04938271604938272,0,0,0.04938271604938272,0,0)" xlink:href="#al"/><use transform="matrix(0.04938271604938272,0,0,0.04938271604938272,9.876543209876544,0)" xlink:href="#ap"/><use transform="matrix(0.04938271604938272,0,0,0.04938271604938272,18.765432098765434,0)" xlink:href="#ap"/><use transform="matrix(0.04938271604938272,0,0,0.04938271604938272,27.654320987654323,0)" xlink:href="#ar"/><use transform="matrix(0.04938271604938272,0,0,0.04938271604938272,37.53086419753087,0)" xlink:href="#ao"/><use transform="matrix(0.04938271604938272,0,0,0.04938271604938272,46.41975308641976,0)" xlink:href="#ao"/></g><g id="z"><use transform="matrix(0.04938271604938272,0,0,0.04938271604938272,0,0)" xlink:href="#aC"/><use transform="matrix(0.04938271604938272,0,0,0.04938271604938272,9.876543209876544,0)" xlink:href="#ah"/><use transform="matrix(0.04938271604938272,0,0,0.04938271604938272,19.75308641975309,0)" xlink:href="#at"/><use transform="matrix(0.04938271604938272,0,0,0.04938271604938272,23.654320987654323,0)" xlink:href="#ak"/><use transform="matrix(0.04938271604938272,0,0,0.04938271604938272,27.555555555555557,0)" xlink:href="#ap"/><use transform="matrix(0.04938271604938272,0,0,0.04938271604938272,36.44444444444444,0)" xlink:href="#ak"/><use transform="matrix(0.04938271604938272,0,0,0.04938271604938272,40.34567901234568,0)" xlink:href="#ar"/><use transform="matrix(0.04938271604938272,0,0,0.04938271604938272,50.22222222222222,0)" xlink:href="#ao"/></g><path fill="#3a414a" d="M212-179c-10-28-35-45-73-45-59 0-87 40-87 99 0 60 29 101 89 101 43 0 62-24 78-52l27 14C228-24 195 4 139 4 59 4 22-46 18-125c-6-104 99-153 187-111 19 9 31 26 39 46" id="aO"/><path fill="#3a414a" d="M30 0v-248h33v221h125V0H30" id="aP"/><g id="A"><use transform="matrix(0.04938271604938272,0,0,0.04938271604938272,0,0)" xlink:href="#av"/><use transform="matrix(0.04938271604938272,0,0,0.04938271604938272,11.851851851851853,0)" xlink:href="#aO"/><use transform="matrix(0.04938271604938272,0,0,0.04938271604938272,24.641975308641978,0)" xlink:href="#aP"/><use transform="matrix(0.04938271604938272,0,0,0.04938271604938272,34.51851851851852,0)" xlink:href="#ao"/></g><path fill="#3a414a" d="M127-220V0H93v-220H8v-28h204v28h-85" id="aQ"/><g id="B"><use transform="matrix(0.04938271604938272,0,0,0.04938271604938272,0,0)" xlink:href="#aH"/><use transform="matrix(0.04938271604938272,0,0,0.04938271604938272,5.8765432098765435,0)" xlink:href="#aQ"/><use transform="matrix(0.04938271604938272,0,0,0.04938271604938272,16.049382716049383,0)" xlink:href="#as"/><use transform="matrix(0.04938271604938272,0,0,0.04938271604938272,21.925925925925927,0)" xlink:href="#aw"/><use transform="matrix(0.04938271604938272,0,0,0.04938271604938272,31.802469135802472,0)" xlink:href="#ao"/><use transform="matrix(0.04938271604938272,0,0,0.04938271604938272,40.69135802469136,0)" xlink:href="#ai"/><use transform="matrix(0.04938271604938272,0,0,0.04938271604938272,45.62962962962963,0)" xlink:href="#ar"/><use transform="matrix(0.04938271604938272,0,0,0.04938271604938272,55.50617283950618,0)" xlink:href="#aj"/><use transform="matrix(0.04938271604938272,0,0,0.04938271604938272,65.38271604938272,0)" xlink:href="#aG"/><use transform="matrix(0.04938271604938272,0,0,0.04938271604938272,70.32098765432099,0)" xlink:href="#aF"/></g><g id="C"><use transform="matrix(0.04938271604938272,0,0,0.04938271604938272,0,0)" xlink:href="#aD"/><use transform="matrix(0.04938271604938272,0,0,0.04938271604938272,8.88888888888889,0)" xlink:href="#an"/><use transform="matrix(0.04938271604938272,0,0,0.04938271604938272,18.765432098765434,0)" xlink:href="#ar"/><use transform="matrix(0.04938271604938272,0,0,0.04938271604938272,28.641975308641978,0)" xlink:href="#ai"/></g><use transform="matrix(0.04938271604938272,0,0,0.04938271604938272,0,0)" xlink:href="#aJ" id="D"/><g id="E"><use transform="matrix(0.04938271604938272,0,0,0.04938271604938272,0,0)" xlink:href="#aM"/><use transform="matrix(0.04938271604938272,0,0,0.04938271604938272,11.851851851851853,0)" xlink:href="#ar"/><use transform="matrix(0.04938271604938272,0,0,0.04938271604938272,21.7283950617284,0)" xlink:href="#aA"/></g><g id="F"><use transform="matrix(0.04938271604938272,0,0,0.04938271604938272,0,0)" xlink:href="#aN"/><use transform="matrix(0.04938271604938272,0,0,0.04938271604938272,10.518518518518519,0)" xlink:href="#al"/><use transform="matrix(0.04938271604938272,0,0,0.04938271604938272,20.395061728395063,0)" xlink:href="#aw"/><use transform="matrix(0.04938271604938272,0,0,0.04938271604938272,30.271604938271608,0)" xlink:href="#at"/><use transform="matrix(0.04938271604938272,0,0,0.04938271604938272,34.17283950617284,0)" xlink:href="#ai"/></g><g id="G"><use transform="matrix(0.04938271604938272,0,0,0.04938271604938272,0,0)" xlink:href="#aO"/><use transform="matrix(0.04938271604938272,0,0,0.04938271604938272,12.790123456790125,0)" xlink:href="#at"/><use transform="matrix(0.04938271604938272,0,0,0.04938271604938272,16.69135802469136,0)" xlink:href="#ah"/><use transform="matrix(0.04938271604938272,0,0,0.04938271604938272,26.567901234567902,0)" xlink:href="#aw"/><use transform="matrix(0.04938271604938272,0,0,0.04938271604938272,36.44444444444445,0)" xlink:href="#aj"/></g><path fill="#3a414a" d="M30 0v-248h187v28H63v79h144v27H63v87h162V0H30" id="aR"/><path fill="#3a414a" d="M141 0L90-78 38 0H4l68-98-65-92h35l48 74 47-74h35l-64 92 68 98h-35" id="aS"/><path fill="#3a414a" d="M106-169C34-169 62-67 57 0H25v-261h32l-1 103c12-21 28-36 61-36 89 0 53 116 60 194h-32v-121c2-32-8-49-39-48" id="aT"/><g id="H"><use transform="matrix(0.04938271604938272,0,0,0.04938271604938272,0,0)" xlink:href="#aR"/><use transform="matrix(0.04938271604938272,0,0,0.04938271604938272,11.851851851851853,0)" xlink:href="#aS"/><use transform="matrix(0.04938271604938272,0,0,0.04938271604938272,20.74074074074074,0)" xlink:href="#ap"/><use transform="matrix(0.04938271604938272,0,0,0.04938271604938272,29.629629629629633,0)" xlink:href="#aT"/><use transform="matrix(0.04938271604938272,0,0,0.04938271604938272,39.50617283950618,0)" xlink:href="#al"/><use transform="matrix(0.04938271604938272,0,0,0.04938271604938272,49.38271604938272,0)" xlink:href="#an"/><use transform="matrix(0.04938271604938272,0,0,0.04938271604938272,59.25925925925927,0)" xlink:href="#am"/><use transform="matrix(0.04938271604938272,0,0,0.04938271604938272,69.13580246913581,0)" xlink:href="#ar"/></g><g id="I"><use transform="matrix(0.04938271604938272,0,0,0.04938271604938272,0,0)" xlink:href="#aN"/><use transform="matrix(0.04938271604938272,0,0,0.04938271604938272,11.851851851851853,0)" xlink:href="#aL"/></g><g id="J"><use transform="matrix(0.04938271604938272,0,0,0.04938271604938272,0,0)" xlink:href="#au"/><use transform="matrix(0.04938271604938272,0,0,0.04938271604938272,11.851851851851853,0)" xlink:href="#ar"/><use transform="matrix(0.04938271604938272,0,0,0.04938271604938272,21.7283950617284,0)" xlink:href="#as"/><use transform="matrix(0.04938271604938272,0,0,0.04938271604938272,27.604938271604947,0)" xlink:href="#aD"/><use transform="matrix(0.04938271604938272,0,0,0.04938271604938272,36.49382716049384,0)" xlink:href="#ak"/><use transform="matrix(0.04938271604938272,0,0,0.04938271604938272,40.39506172839507,0)" xlink:href="#ap"/><use transform="matrix(0.04938271604938272,0,0,0.04938271604938272,49.28395061728396,0)" xlink:href="#ar"/></g><g id="K"><use transform="matrix(0.04938271604938272,0,0,0.04938271604938272,0,0)" xlink:href="#ar"/><use transform="matrix(0.04938271604938272,0,0,0.04938271604938272,9.876543209876544,0)" xlink:href="#an"/><use transform="matrix(0.04938271604938272,0,0,0.04938271604938272,19.75308641975309,0)" xlink:href="#aj"/><use transform="matrix(0.04938271604938272,0,0,0.04938271604938272,29.629629629629633,0)" xlink:href="#aC"/><use transform="matrix(0.04938271604938272,0,0,0.04938271604938272,39.50617283950618,0)" xlink:href="#ah"/><use transform="matrix(0.04938271604938272,0,0,0.04938271604938272,49.38271604938272,0)" xlink:href="#ak"/><use transform="matrix(0.04938271604938272,0,0,0.04938271604938272,53.283950617283956,0)" xlink:href="#an"/><use transform="matrix(0.04938271604938272,0,0,0.04938271604938272,63.1604938271605,0)" xlink:href="#ai"/></g><path fill="#3a414a" d="M101-234c-31-9-42 10-38 44h38v23H63V0H32v-167H5v-23h27c-7-52 17-82 69-68v24" id="aU"/><path fill="#3a414a" d="M33 0v-38h34V0H33" id="aV"/><g id="L"><use transform="matrix(0.04938271604938272,0,0,0.04938271604938272,0,0)" xlink:href="#aH"/><use transform="matrix(0.04938271604938272,0,0,0.04938271604938272,5.8765432098765435,0)" xlink:href="#aL"/><use transform="matrix(0.04938271604938272,0,0,0.04938271604938272,20.641975308641978,0)" xlink:href="#ak"/><use transform="matrix(0.04938271604938272,0,0,0.04938271604938272,24.543209876543212,0)" xlink:href="#ap"/><use transform="matrix(0.04938271604938272,0,0,0.04938271604938272,33.4320987654321,0)" xlink:href="#as"/><use transform="matrix(0.04938271604938272,0,0,0.04938271604938272,39.308641975308646,0)" xlink:href="#ah"/><use transform="matrix(0.04938271604938272,0,0,0.04938271604938272,49.18518518518519,0)" xlink:href="#ao"/><use transform="matrix(0.04938271604938272,0,0,0.04938271604938272,58.074074074074076,0)" xlink:href="#ah"/><use transform="matrix(0.04938271604938272,0,0,0.04938271604938272,67.95061728395062,0)" xlink:href="#aU"/><use transform="matrix(0.04938271604938272,0,0,0.04938271604938272,72.88888888888889,0)" xlink:href="#ai"/><use transform="matrix(0.04938271604938272,0,0,0.04938271604938272,77.82716049382717,0)" xlink:href="#aV"/><use transform="matrix(0.04938271604938272,0,0,0.04938271604938272,82.76543209876544,0)" xlink:href="#aM"/><use transform="matrix(0.04938271604938272,0,0,0.04938271604938272,94.61728395061729,0)" xlink:href="#ar"/><use transform="matrix(0.04938271604938272,0,0,0.04938271604938272,104.49382716049384,0)" xlink:href="#aA"/><use transform="matrix(0.04938271604938272,0,0,0.04938271604938272,113.38271604938272,0)" xlink:href="#aN"/><use transform="matrix(0.04938271604938272,0,0,0.04938271604938272,123.90123456790124,0)" xlink:href="#al"/><use transform="matrix(0.04938271604938272,0,0,0.04938271604938272,133.77777777777777,0)" xlink:href="#aw"/><use transform="matrix(0.04938271604938272,0,0,0.04938271604938272,143.65432098765433,0)" xlink:href="#at"/><use transform="matrix(0.04938271604938272,0,0,0.04938271604938272,147.55555555555557,0)" xlink:href="#ai"/><use transform="matrix(0.04938271604938272,0,0,0.04938271604938272,152.49382716049385,0)" xlink:href="#aJ"/></g><linearGradient gradientUnits="userSpaceOnUse" id="M" x1="1287.4" y1="902.06" x2="1291.46" y2="906.73"><stop offset="0%" stop-color="#86d633"/><stop offset="100%" stop-color="#5e9624"/></linearGradient><linearGradient gradientUnits="userSpaceOnUse" id="N" x1="1273.25" y1="903.24" x2="1277.27" y2="907.92"><stop offset="0%" stop-color="#86d633"/><stop offset="100%" stop-color="#5e9624"/></linearGradient><linearGradient gradientUnits="userSpaceOnUse" id="O" x1="1264.09" y1="903.24" x2="1268.12" y2="907.92"><stop offset="0%" stop-color="#86d633"/><stop offset="100%" stop-color="#5e9624"/></linearGradient><linearGradient gradientUnits="userSpaceOnUse" id="P" x1="977.53" y1="743.29" x2="977.53" y2="677.36"><stop offset="0%" stop-color="#0078d4"/><stop offset="82%" stop-color="#5ea0ef"/></linearGradient><linearGradient gradientUnits="userSpaceOnUse" id="Q" x1="977.53" y1="768.68" x2="977.53" y2="743.29"><stop offset="15%" stop-color="#ccc"/><stop offset="100%" stop-color="#707070"/></linearGradient><radialGradient gradientUnits="userSpaceOnUse" id="R" fx="977.53" fy="260.39" cx="977.53" cy="260.39" r="42.47"><stop offset="18%" stop-color="#5ea0ef"/><stop offset="56%" stop-color="#5c9fee"/><stop offset="69%" stop-color="#559ced"/><stop offset="78%" stop-color="#4a97e9"/><stop offset="86%" stop-color="#3990e4"/><stop offset="93%" stop-color="#2387de"/><stop offset="99%" stop-color="#087bd6"/><stop offset="100%" stop-color="#0078d4"/></radialGradient><radialGradient gradientUnits="userSpaceOnUse" id="S" fx="972.05" fy="254.95" cx="972.05" cy="254.95" r="46.31"><stop offset="27%" stop-color="#ffd70f"/><stop offset="49%" stop-color="#ffcb12"/><stop offset="88%" stop-color="#feac19"/><stop offset="100%" stop-color="#fea11b"/></radialGradient><linearGradient gradientUnits="userSpaceOnUse" id="T" x1="1529.2" y1="598.08" x2="1510.98" y2="565.1"><stop offset="0%" stop-color="#1988d9"/><stop offset="90%" stop-color="#54aef0"/></linearGradient><linearGradient gradientUnits="userSpaceOnUse" id="U" x1="1521.36" y1="588.52" x2="1533.99" y2="609.28"><stop offset="10%" stop-color="#54aef0"/><stop offset="29%" stop-color="#4fabee"/><stop offset="51%" stop-color="#41a2e9"/><stop offset="74%" stop-color="#2a93e0"/><stop offset="88%" stop-color="#1988d9"/></linearGradient><g id="V"><use transform="matrix(0.04938271604938272,0,0,0.04938271604938272,0,0)" xlink:href="#au"/><use transform="matrix(0.04938271604938272,0,0,0.04938271604938272,11.851851851851853,0)" xlink:href="#au"/><use transform="matrix(0.04938271604938272,0,0,0.04938271604938272,23.703703703703706,0)" xlink:href="#aP"/></g><g id="W"><use transform="matrix(0.04938271604938272,0,0,0.04938271604938272,0,0)" xlink:href="#aO"/><use transform="matrix(0.04938271604938272,0,0,0.04938271604938272,12.790123456790125,0)" xlink:href="#ar"/><use transform="matrix(0.04938271604938272,0,0,0.04938271604938272,22.66666666666667,0)" xlink:href="#as"/><use transform="matrix(0.04938271604938272,0,0,0.04938271604938272,28.54320987654322,0)" xlink:href="#ai"/><use transform="matrix(0.04938271604938272,0,0,0.04938271604938272,33.48148148148149,0)" xlink:href="#ak"/><use transform="matrix(0.04938271604938272,0,0,0.04938271604938272,37.38271604938272,0)" xlink:href="#aU"/><use transform="matrix(0.04938271604938272,0,0,0.04938271604938272,42.320987654320994,0)" xlink:href="#ak"/><use transform="matrix(0.04938271604938272,0,0,0.04938271604938272,46.22222222222223,0)" xlink:href="#ap"/><use transform="matrix(0.04938271604938272,0,0,0.04938271604938272,55.111111111111114,0)" xlink:href="#al"/><use transform="matrix(0.04938271604938272,0,0,0.04938271604938272,64.98765432098766,0)" xlink:href="#ai"/><use transform="matrix(0.04938271604938272,0,0,0.04938271604938272,69.92592592592592,0)" xlink:href="#ar"/></g><g id="X"><use transform="matrix(0.04938271604938272,0,0,0.04938271604938272,0,0)" xlink:href="#al"/><use transform="matrix(0.04938271604938272,0,0,0.04938271604938272,9.876543209876544,0)" xlink:href="#an"/><use transform="matrix(0.04938271604938272,0,0,0.04938271604938272,19.75308641975309,0)" xlink:href="#aj"/></g><g id="Y"><use transform="matrix(0.04938271604938272,0,0,0.04938271604938272,0,0)" xlink:href="#aH"/><use transform="matrix(0.04938271604938272,0,0,0.04938271604938272,5.8765432098765435,0)" xlink:href="#ao"/><use transform="matrix(0.04938271604938272,0,0,0.04938271604938272,14.765432098765434,0)" xlink:href="#ar"/><use transform="matrix(0.04938271604938272,0,0,0.04938271604938272,24.641975308641978,0)" xlink:href="#ap"/><use transform="matrix(0.04938271604938272,0,0,0.04938271604938272,33.53086419753087,0)" xlink:href="#as"/><use transform="matrix(0.04938271604938272,0,0,0.04938271604938272,39.40740740740741,0)" xlink:href="#ar"/><use transform="matrix(0.04938271604938272,0,0,0.04938271604938272,49.283950617283956,0)" xlink:href="#ai"/><use transform="matrix(0.04938271604938272,0,0,0.04938271604938272,54.22222222222223,0)" xlink:href="#ao"/><use transform="matrix(0.04938271604938272,0,0,0.04938271604938272,63.111111111111114,0)" xlink:href="#aJ"/></g><linearGradient gradientUnits="userSpaceOnUse" id="Z" x1="1002.28" y1="408.86" x2="1002.28" y2="469.15"><stop offset="0%" stop-color="#ffd70f"/><stop offset="12%" stop-color="#fc1"/><stop offset="44%" stop-color="#feb517"/><stop offset="75%" stop-color="#fea61a"/><stop offset="100%" stop-color="#fea11b"/></linearGradient><radialGradient gradientUnits="userSpaceOnUse" id="aa" fx="290.56" fy="119.5" cx="290.56" cy="119.5" r="39.05"><stop offset="27%" stop-color="#ffd70f"/><stop offset="49%" stop-color="#ffcb12"/><stop offset="88%" stop-color="#feac19"/><stop offset="100%" stop-color="#fea11b"/></radialGradient><linearGradient gradientUnits="userSpaceOnUse" id="ab" x1="371.86" y1="757.13" x2="371.86" y2="710.87"><stop offset="0%" stop-color="#32bedd"/><stop offset="18%" stop-color="#32caea"/><stop offset="41%" stop-color="#32d2f2"/><stop offset="78%" stop-color="#32d4f5"/></linearGradient><path d="M185-189c-5-48-123-54-124 2 14 75 158 14 163 119 3 78-121 87-175 55-17-10-28-26-33-46l33-7c5 56 141 63 141-1 0-78-155-14-162-118-5-82 145-84 179-34 5 7 8 16 11 25" id="aW"/><path d="M84 4C-5 8 30-112 23-190h32v120c0 31 7 50 39 49 72-2 45-101 50-169h31l1 190h-30c-1-10 1-25-2-33-11 22-28 36-60 37" id="aX"/><path d="M115-194c53 0 69 39 70 98 0 66-23 100-70 100C84 3 66-7 56-30L54 0H23l1-261h32v101c10-23 28-34 59-34zm-8 174c40 0 45-34 45-75 0-40-5-75-45-74-42 0-51 32-51 76 0 43 10 73 51 73" id="aY"/><path d="M117-194c89-4 53 116 60 194h-32v-121c0-31-8-49-39-48C34-167 62-67 57 0H25l-1-190h30c1 10-1 24 2 32 11-22 29-35 61-36" id="aZ"/><path d="M100-194c63 0 86 42 84 106H49c0 40 14 67 53 68 26 1 43-12 49-29l28 8c-11 28-37 45-77 45C44 4 14-33 15-96c1-61 26-98 85-98zm52 81c6-60-76-77-97-28-3 7-6 17-6 28h103" id="ba"/><path d="M59-47c-2 24 18 29 38 22v24C64 9 27 4 27-40v-127H5v-23h24l9-43h21v43h35v23H59v120" id="bb"/><g id="ac"><use transform="matrix(0.04938271604938272,0,0,0.04938271604938272,0,0)" xlink:href="#aW"/><use transform="matrix(0.04938271604938272,0,0,0.04938271604938272,11.851851851851853,0)" xlink:href="#aX"/><use transform="matrix(0.04938271604938272,0,0,0.04938271604938272,21.7283950617284,0)" xlink:href="#aY"/><use transform="matrix(0.04938271604938272,0,0,0.04938271604938272,31.60493827160494,0)" xlink:href="#aZ"/><use transform="matrix(0.04938271604938272,0,0,0.04938271604938272,41.48148148148149,0)" xlink:href="#ba"/><use transform="matrix(0.04938271604938272,0,0,0.04938271604938272,51.35802469135803,0)" xlink:href="#bb"/></g><path fill="#3a414a" d="M16-82v-28h88v28H16" id="bc"/><g id="ad"><use transform="matrix(0.04938271604938272,0,0,0.04938271604938272,0,0)" xlink:href="#aF"/><use transform="matrix(0.04938271604938272,0,0,0.04938271604938272,11.851851851851853,0)" xlink:href="#as"/><use transform="matrix(0.04938271604938272,0,0,0.04938271604938272,17.728395061728396,0)" xlink:href="#ak"/><use transform="matrix(0.04938271604938272,0,0,0.04938271604938272,21.62962962962963,0)" xlink:href="#aD"/><use transform="matrix(0.04938271604938272,0,0,0.04938271604938272,30.518518518518523,0)" xlink:href="#al"/><use transform="matrix(0.04938271604938272,0,0,0.04938271604938272,40.39506172839506,0)" xlink:href="#ai"/><use transform="matrix(0.04938271604938272,0,0,0.04938271604938272,45.333333333333336,0)" xlink:href="#ar"/><use transform="matrix(0.04938271604938272,0,0,0.04938271604938272,55.20987654320988,0)" xlink:href="#bc"/><use transform="matrix(0.04938271604938272,0,0,0.04938271604938272,61.086419753086425,0)" xlink:href="#aG"/><use transform="matrix(0.04938271604938272,0,0,0.04938271604938272,66.0246913580247,0)" xlink:href="#aF"/></g><linearGradient gradientUnits="userSpaceOnUse" id="ae" x1="754.06" y1="743.54" x2="754.06" y2="680.54"><stop offset="0%" stop-color="#5e9641"/><stop offset="34%" stop-color="#6baa42"/><stop offset="67%" stop-color="#73b743"/><stop offset="100%" stop-color="#76bb43"/></linearGradient><linearGradient gradientUnits="userSpaceOnUse" id="af" x1="976.94" y1="1117.85" x2="976.94" y2="1076"><stop offset="0%" stop-color="#b3b3b3"/><stop offset="26%" stop-color="#c1c1c1"/><stop offset="100%" stop-color="#e6e6e6"/></linearGradient></defs></g></svg>